# xmcd
#
# Track frame offsets:
#	150
#	15134
#	30246
#	47344
#	60768
#	77746
#	87315
#	101019
#	113954
#	134770
#	153646
#	166827
#	183524
#	203005
#	218180
#	233183
#	251337
#	268833
#	284211
#	296702
#	313659
#	328922
#
# Disc length: 4636 seconds
#
# Revision: 1
# Processed by: cddbd v1.5.2PL0 Copyright (c) Steve Scherf et al.
# Submitted via: audiograbber 1.83.01
#
DISCID=38121a16
DTITLE=Tamra Rosanes - The Very Best Of 40TH. Anniversary Album  CD 2
DYEAR=2012
DGENRE=Country
TTITLE0=Never Knew Lonely
TTITLE1=Guest Of Many Faces
TTITLE2=Can't Break A Broken Heart
TTITLE3=True Love
TTITLE4=My Night To Howl
TTITLE5=Long Way Home
TTITLE6=That's The Way The World Goes Round
TTITLE7=Be My Friend Tonight
TTITLE8=Run With The Wind
TTITLE9=Help Me Make It Through The Night
TTITLE10=Ring Of Fire
TTITLE11=Free To Follow Your Heart
TTITLE12=Two Hearts
TTITLE13=Ride On
TTITLE14=Country Party
TTITLE15=A Taste Of You
TTITLE16=Shenandoah
TTITLE17=Feeling Like Sunshine
TTITLE18=You Can't Stop Love
TTITLE19=On The Road To Copenhagen
TTITLE20=I Saw Mommy Kissing Santa Claus
TTITLE21=Woodstock
EXTD=
EXTT0=
EXTT1=
EXTT2=
EXTT3=
EXTT4=
EXTT5=
EXTT6=
EXTT7=
EXTT8=
EXTT9=
EXTT10=
EXTT11=
EXTT12=
EXTT13=
EXTT14=
EXTT15=
EXTT16=
EXTT17=
EXTT18=
EXTT19=
EXTT20=
EXTT21=
PLAYORDER=
